<svg xmlns="http://www.w3.org/2000/svg" viewBox="0 0 508.84 535.84"><defs><style>.cls-1{fill:none;stroke:red;stroke-width:8px;}.cls-1,.cls-2{stroke-miterlimit:10;}.cls-2{font-size:97.42px;fill:#fff;stroke:#000;}.cls-2,.cls-5,.cls-6{font-family:BreeSerif, Bree Serif;}.cls-3{letter-spacing:-0.01em;}.cls-4{letter-spacing:-0.08em;}.cls-5{font-size:72px;}.cls-6{font-size:48px;}</style></defs><g id="Ebene_1" data-name="Ebene 1"><circle class="cls-1" cx="254.42" cy="281.42" r="250.42"/><circle class="cls-1" cx="254.42" cy="281.42" r="142.42"/><text class="cls-2" transform="translate(165.96 313.08)"><tspan class="cls-3">S</tspan><tspan class="cls-4" x="51.24" y="0">V</tspan><tspan x="105.41" y="0">A</tspan></text><text class="cls-5" transform="matrix(0.88, 0.48, -0.48, 0.88, 122.23, 463.12)">1</text><text class="cls-5" transform="translate(153.51 480.02) rotate(19.61)">9</text><text class="cls-5" transform="translate(193.24 493.59) rotate(10.63)">1</text><text class="cls-5" transform="matrix(1, 0.03, -0.03, 1, 228.14, 500.08)">9</text><text class="cls-5" transform="translate(269.59 500.55) rotate(-4.85)"> </text><text class="cls-5" transform="matrix(0.98, -0.2, 0.2, 0.98, 287.68, 499.39)">e</text><text class="cls-5" transform="translate(325.06 491.17) rotate(-18)">.</text><text class="cls-5" transform="translate(339.97 487.03) rotate(-24.18)">v</text><text class="cls-5" transform="translate(374.03 471.17) rotate(-30.18)">.</text><text class="cls-6" transform="matrix(0.85, -0.53, 0.53, 0.85, 140.29, 136.62)">A</text><text class="cls-6" transform="translate(166.52 120.37) rotate(-23.49)">p</text><text class="cls-6" transform="translate(190.01 110.08) rotate(-15.71)">p</text><text class="cls-6" transform="translate(214.77 103.17) rotate(-8.46)">e</text><text class="cls-6" transform="matrix(1, -0.06, 0.06, 1, 236.98, 100.06)">l</text><text class="cls-6" transform="translate(249.58 98.95) rotate(2.68)">h</text><text class="cls-6" transform="translate(276.23 100.11) rotate(10.72)">ü</text><text class="cls-6" transform="translate(302.83 105.49) rotate(16.75)">l</text><text class="cls-6" transform="matrix(0.93, 0.37, -0.37, 0.93, 315.09, 108.96)">s</text><text class="cls-6" transform="translate(334.15 116.48) rotate(28.28)">e</text><text class="cls-6" transform="matrix(0.81, 0.58, -0.58, 0.81, 353.76, 126.79)">n</text><circle class="cls-1" cx="254.42" cy="281.42" r="142.42"/></g></svg>