<svg id="Ebene_1" data-name="Ebene 1" xmlns="http://www.w3.org/2000/svg" viewBox="0 0 1087.77 1087.77"><defs><style>.cls-1{fill:#d00000;}</style></defs><path class="cls-1" d="M223.87,468.39c-17.53-5.95-23.53,2.77-28.61,17.73l-3.6,10.61,40.85,13.86L236.44,499C241.24,484.86,239.15,473.57,223.87,468.39Z" transform="translate(-96.12 -96.12)"/><path class="cls-1" d="M294.71,349.08c-14.86-11-23.26-4.58-32.68,8.09l-6.68,9L290,391.9l7.3-9.82C306.18,370.09,307.65,358.7,294.71,349.08Z" transform="translate(-96.12 -96.12)"/><polygon class="cls-1" points="78.37 538.3 126.36 554.33 126.52 522.4 78.38 537.79 78.37 538.3"/><path class="cls-1" d="M625.8,1041.74c-8.42-.29-14.31,6.29-14.7,18-.32,9.67,3.62,15.88,11.9,16.16a24.89,24.89,0,0,0,15.93-5.14C639.91,1053.82,636.57,1042.09,625.8,1041.74Z" transform="translate(-96.12 -96.12)"/><path class="cls-1" d="M737.64,1058.55c-1.13-5.69-5-7.32-10-6.32-10.84,2.15-13.56,13.26-12.76,22.26,1.92-.24,3.69-.59,5.45-.94C732.13,1071.2,739.26,1066.69,737.64,1058.55Z" transform="translate(-96.12 -96.12)"/><path class="cls-1" d="M504.45,1018.56c-7.94-2.83-15.55,1.64-19.49,12.71-3.26,9.11-1.39,16.23,6.42,19a24.92,24.92,0,0,0,16.74,0C514.22,1034.37,514.6,1022.18,504.45,1018.56Z" transform="translate(-96.12 -96.12)"/><path class="cls-1" d="M640,96.12C339.62,96.12,96.12,339.62,96.12,640S339.62,1183.88,640,1183.88,1183.88,940.38,1183.88,640,940.38,96.12,640,96.12ZM952.93,377.47l-9.27,6.89c-2.32,1.72-3.1,2.94-2.26,5.49s3.93,7.87,6.77,11.68c6.59,8.86,15.33,14.64,26,6.74,8.86-6.59,6.29-16.31,1.68-27.91-5.91-15.08-10.66-32.29,6.79-45.26,16.63-12.36,36.14-7.18,50.42,12,6.39,8.59,12.25,19.9,14,29.14l-21.4,15.91-10.78-12.51,8.86-6.59c2.32-1.72,3.2-2.8,2.26-5.49a58.66,58.66,0,0,0-6.1-10.49c-5.47-7.36-13.53-12.8-22.53-6.11-8.72,6.48-5.84,15.77-1.31,28.69,5.37,15.48,10.36,31.88-7.5,45.15s-37.1,8.74-53.2-12.94c-7-9.4-13.37-20.54-15.43-30.43L942,365.06ZM852.47,305.68l48.5-64-7-5.94,8.1-10.69,31.68,24-7.7,10.15-4.74-2.74c-2.78-1.68-4.58-1.55-7,1.7L866.7,320.93l22.2,16.81c3,2.26,4.37,1.82,6.42-.88l6.67-8.8,12.28,10.79L896.42,362.4l-62.81-47.58,7.79-10.28,4.51,2.77C848.55,308.88,850.11,308.79,852.47,305.68ZM810.9,159.24c2.05-5.94,7.93-8.94,14.67-6.62,6.27,2.16,9.21,8.2,7.17,14.14-2.1,6.11-8.1,8.89-14.52,6.68C811.48,171.12,808.8,165.34,810.9,159.24ZM778.3,148c2.05-5.94,7.93-8.94,14.52-6.67,6.42,2.21,9.37,8.25,7.32,14.19-2.1,6.11-8.09,8.89-14.51,6.68C779,159.94,776.2,154.11,778.3,148ZM733.55,235.7,754,176.29l-8.29-3.57L750.09,160,787,172.75,782.82,185l-5.15-1.24c-2.83-.62-4.24-.2-5.51,3.49l-19.08,55.4c-5.53,16.06,1.8,24,14.48,28.34s22.93.72,27.63-12.93l20.86-60.54-7.87-3.25,4.38-12.68,35.32,12.17-4.2,12.2-4.82-1.12c-3-.68-4.57-.32-5.84,3.38l-20,58c-7.24,21-27.83,27.6-51.75,19.36C735,276.43,724.81,261.07,733.55,235.7Zm-118.06-85,.26,12.91-5.08.61c-3,.4-4.39,1.45-4.32,5.18l.57,28.36,48.91-1L655.17,164l-8.67-.5-.27-13.42,38.55-.77.25,12.91-4.91.6c-3,.4-4.22,1.28-4.14,5.35l1.61,80.33,8.84.33.27,13.41-39.05.79-.26-12.91,5.25-.61c3.22-.58,4.22-1.45,4.14-5.35l-.63-31.42-48.91,1,.73,36.18,8.84.33.27,13.41-38.89.78-.25-12.73,4.91-.78c3.21-.57,4.39-1.28,4.31-5.35l-1.61-80.16-9-.5-.27-13.41ZM477,178.69l4.33,12-4.88,2.49c-2.92,1.42-3.8,3-2.41,6.83l26.8,74.11,26.19-9.47c3.51-1.27,3.91-2.68,2.75-5.87l-3.75-10.38L541.81,244l10,27.79-74.11,26.8-4.38-12.14,4.77-2.27c2.76-1.36,3.53-2.72,2.21-6.4L453,202.19l-8.8,2.64-4.56-12.62Zm-92.41,43,15.49,21.08-12.48,10.85-4.72-6.44c-1.81-2.46-3.44-2.95-6.17-.94L355.25,262l19.11,26,32.71-24,9.26,12.59-32.72,24,20.61,28.06,23-16.9c2.74-2,2.58-3.37.57-6.1l-5.23-7.12,14.08-8.66,16.09,21.9-63.79,46.86-7.54-10.27,2.85-2.72c3.39-3.13,3.67-4.18,1-7.87L338,273.46l-7.66,4.78-7.94-10.81ZM269,619.26l-12.74-.07-.65-5.6c-.33-3.23-1.85-4.26-5.25-3.09l-13.44,4.69-.19,38.73,18.14,6.2.55-8.66,13.42.07-.18,36.68-12.74-.06-.49-4.08c-.49-3.91-2.35-4.77-5.23-5.8l-79.86-27.91-1.07,8.83-13.41-.07.18-37,99-34.67.72-8.66,13.42.06Zm5.64-62.64-12.06-4.09,1.1-5.36c.67-3,0-4.14-3.57-5.34L184,516l-3.53,8.3L167.8,520l15.49-45.67c8-23.64,24.19-34.3,45.74-27,24.45,8.29,30.62,29.75,22.38,54l-4.74,14L271,523.63l5.61-14.42,12.71,4.31Zm32-126.51L242.17,382.2,236.26,389l-10.77-8,28.77-38.71c14.88-20,33.54-25.22,51.81-11.65,20.72,15.4,20,37.72,4.71,58.3L302,400.81l20.58,15.3,9.76-12,10.78,8-27.15,36.53-10.22-7.59,2.69-4.77C310,433.62,309.65,432.33,306.65,430.11ZM436,1076.18l-42.52-23,4.87-9,11.51,5.45c2.25,1.06,3.54,1.29,5.32-2l27.53-50.78-21.32-.39-.14-10.77,31.53-1.61,11.9,6.45-37,68.27,13.4,8Zm87.74-21.55c-8.59,24.08-25.92,42.25-60.59,34.14l1.13-12.65c18.68,3.58,32.5-.59,39.92-15.26a34.65,34.65,0,0,1-20.52-.86c-14.71-5.25-19.83-17.63-14.17-33.51,5.95-16.66,20.3-26.07,39.17-19.34C529.23,1014.49,531.29,1033.41,523.72,1054.63Zm54.48,62.85-47.53-8.93,1.89-10,12.62,1.67c2.47.32,3.77.14,4.46-3.52l10.67-56.76L539.89,1046l-3.42-10.2L566,1024.65l13.3,2.5L565,1103.46l15.21,3.57Zm76.93-47.26c-.86,25.55-11.84,48.13-47.32,51l-2.77-12.4c18.88-2.27,30.76-10.44,33.38-26.67a34.67,34.67,0,0,1-19.81,5.42c-15.61-.52-24.25-10.76-23.69-27.61.59-17.67,11.4-31,31.42-30.33C648.16,1030.31,655.88,1047.71,655.13,1070.22Zm83.1,42.32c-22.9,4.55-34.4-8.66-38.23-27.91-4.18-21,4.27-40.15,26-44.46,13.69-2.72,23.49,1.95,26,14.69,3.86,19.38-11.6,27.38-34.8,31.15,2.48,8.94,8.52,15.92,20.31,13.57a30.66,30.66,0,0,0,16-8.95l7,10.31C758.59,1103,750.7,1110.06,738.23,1112.54Zm50.78-13.6c-6.31,2-11-.66-12.71-6-1.66-5.13.79-10.13,6.44-12,6-2,10.74.44,12.45,5.7S794.79,1097.07,789,1098.94Zm51-82.21L844.8,1075l-17.53,7.84-42.73-45.06-6,1.78-4.18-9.33L803,1017.43l4.29,9.58-3.87,2.19c-1.9,1.15-1.9,2.51-.31,4.37l27.38,30.74.13,0-4.38-45-5.9,2-4.35-9.71,25.1-11.23,4.17,9.33-2.91,1.61C840.43,1012.47,839.83,1013.5,840.06,1016.73Zm41.83,40.72c-5.73,3.33-10.85,1.67-13.69-3.23-2.71-4.67-1.37-10.07,3.77-13,5.5-3.19,10.6-1.84,13.37,2.94S887.15,1054.41,881.89,1057.45ZM640,974.21c-184.58,0-334.21-149.63-334.21-334.21S455.42,305.79,640,305.79,974.21,455.42,974.21,640,824.58,974.21,640,974.21ZM975.7,469.36l11.94-4.42,1.84,3.49c2.07,4.12,3,4.68,7.3,3.09l74.87-27.69-2.49-8.68,12.58-4.66L1108.56,503,1084,512.05l-7-15,7.49-2.77c2.87-1.06,3.79-2.49,2.61-5.68l-9.25-25-30.27,11.2,14.09,38.07L1047,518.3,1033,480.23l-32.66,12.08,9.9,26.76c1.18,3.19,2.53,3.41,5.72,2.24l8.28-3.07,4.44,15.92-25.48,9.43Zm137.36,201.25c-.61-3.21-1.48-4.21-5.22-4.1l-94.39,2.73-.57-19.69,80.56-52.28,0-.34-68.07,2-.24,9.35-13.41.39-1.11-38.53,12.73-.37.83,5.41c.43,2.88,1.31,4,4.87,3.94l80.81-2.34.26-8.84,13.41-.39.87,30-79.24,50.88v.34l66.72-1.92.24-9.36,13.41-.38,1.11,38.36-12.9.38Z" transform="translate(-96.12 -96.12)"/><path class="cls-1" d="M468.29,671.91c0-24.43-20.68-32.7-47.37-39.84-34.58-9.4-71.42-23.68-71.42-71.8,0-45.85,35-73.67,88-73.67,23.69,0,51.5,4.51,70.3,13.53v59l-36.47,2.63V537.34c0-6.39-.75-9.39-6.76-11.27-5.64-1.51-18-3-26.69-3-20.3,0-40.6,7.14-40.6,32,0,24.06,20.3,31.2,49.25,40.22,34.58,10.9,70.29,23.68,70.29,72.93s-33.46,77.43-93.22,77.43c-25.94,0-54.13-3.39-74.43-12.78v-60.9l36.46-3v25.56c0,6.39,1.13,9.4,6.77,11.27,6,1.88,19.17,3.39,29.69,3.39C446.49,709.13,468.29,701.23,468.29,671.91Z" transform="translate(-96.12 -96.12)"/><path class="cls-1" d="M634,699h.37l53-171-19.17-1.12v-29.7h79.69v28.57l-8.27.75c-6.76.38-9.77,3.38-12.4,12L658.78,747.09H606.53l-73.3-218.77-19.17-1.5v-29.7H603.9v28.57L593,526.82c-9,1.12-11.28,4.88-8.27,14.66Z" transform="translate(-96.12 -96.12)"/><path class="cls-1" d="M696.44,749.09V720.9l9-1.13c8.65-1.13,10.53-5.26,12.78-11.65l60.9-177-19.55-2.26v-29.7h81.94l77.81,218.77,19.17,1.51v29.69H849.05V720.9l12.41-1.5c7.14-.76,9.39-4.14,6.76-11.66L857.7,678.05H772l-13.54,40.22,19.17,1.13v29.69Zm83.07-102.62h70.67L815.6,540.09h-1.13Z" transform="translate(-96.12 -96.12)"/></svg>
